<?xml version="1.0" encoding="UTF-8" standalone="no"?>
<!-- Created with Inkscape (http://www.inkscape.org/) -->

<svg
   xmlns:dc="http://purl.org/dc/elements/1.1/"
   xmlns:cc="http://creativecommons.org/ns#"
   xmlns:rdf="http://www.w3.org/1999/02/22-rdf-syntax-ns#"
   xmlns:svg="http://www.w3.org/2000/svg"
   xmlns="http://www.w3.org/2000/svg"
   xmlns:sodipodi="http://sodipodi.sourceforge.net/DTD/sodipodi-0.dtd"
   xmlns:inkscape="http://www.inkscape.org/namespaces/inkscape"
   id="svg4136"
   version="1.1"
   inkscape:version="0.91 r13725"
   width="3000"
   height="3000"
   viewBox="0 0 3000 3000"
   sodipodi:docname="BackgroundPattern52.svg">
  <metadata
     id="metadata4142">
    <rdf:RDF>
      <cc:Work
         rdf:about="">
        <dc:format>image/svg+xml</dc:format>
        <dc:type
           rdf:resource="http://purl.org/dc/dcmitype/StillImage" />
        <dc:title></dc:title>
      </cc:Work>
    </rdf:RDF>
  </metadata>
  <defs
     id="defs4140" />
  <sodipodi:namedview
     pagecolor="#ffffff"
     bordercolor="#666666"
     borderopacity="1"
     objecttolerance="10"
     gridtolerance="10"
     guidetolerance="10"
     inkscape:pageopacity="0"
     inkscape:pageshadow="2"
     inkscape:window-width="1600"
     inkscape:window-height="837"
     id="namedview4138"
     showgrid="false"
     inkscape:zoom="0.22333333"
     inkscape:cx="1500"
     inkscape:cy="1500"
     inkscape:window-x="-8"
     inkscape:window-y="-8"
     inkscape:window-maximized="1"
     inkscape:current-layer="svg4136" />
  <path
     style="fill:#000000"
     d="m 0.05942466,2968.8281 c 0.0327823,-17.1963 0.40426542,-30.3312 0.82857761,-29.2968 0.42303413,1.0312 5.71280273,14.7421 11.75504073,30.4687 6.042239,15.7266 11.178652,28.9102 11.414251,29.2969 0.2356,0.3867 -5.08091,0.7031 -11.814466,0.7031 L 0,3000 0.05942466,2968.8281 Z M 178.82812,2942.0413 0,2884.223 0,2737.1675 c 0,-117.2671 0.23738197,-146.9615 1.171875,-146.5913 2.4048381,0.953 806.164605,408.3228 806.703775,408.862 0.30902,0.309 -100.86393,0.5302 -224.82877,0.4917 l -225.39063,-0.07 -178.82813,-57.8184 z M 480.70312,2652.9054 0,2305.9932 0,2159.644 l 0,-146.3492 24.140625,23.9974 c 48.499735,48.2122 841.022305,833.9246 851.334815,844.0194 l 10.6317,10.4072 -62.57368,-85.3125 c -34.41552,-46.9219 -67.53471,-92.0625 -73.59819,-100.3125 -10.63017,-14.4635 -10.93516,-15.0091 -8.52676,-15.2542 1.37375,-0.1398 264.45809,11.767 584.63179,26.4596 320.1738,14.6926 582.2474,26.6006 582.3858,26.4622 0.1384,-0.1384 -45.8219,-9.6867 -102.1341,-21.2184 -56.3121,-11.5317 -103.1538,-21.2363 -104.0927,-21.5657 -1.3066,-0.4586 107.6049,-90.6044 464.4931,-384.46 256.4101,-211.1236 467.272,-384.6718 468.582,-385.6626 1.5738,-1.1904 1.2354,-0.5543 -0.9974,1.875 -21.8585,23.7819 -718.9833,810.6891 -718.5643,811.108 0.3151,0.3152 51.8863,2.9103 114.6026,5.7669 62.7164,2.8567 112.595,5.475 110.8415,5.8186 -1.7534,0.3435 -284.3055,31.7834 -627.8935,69.8664 l -624.7055,69.2417 53.05323,52.7343 53.05313,52.7344 -16.62891,-0.091 -16.629,-0.091 -480.70313,-346.9122 z M 1403.958,2999.44 c 2.0417,-0.8503 1257.0531,-342.4915 1257.2845,-342.2599 0.1331,0.133 -171.3735,77.3219 -381.1255,171.5309 L 1898.7496,3000 l -247.8905,-0.074 c -136.3397,-0.041 -247.4452,-0.2594 -246.9011,-0.486 z m 824.9566,-4.4336 c 4.1204,-2.7465 162.7417,-106.3851 352.4917,-230.3079 189.75,-123.923 345.4218,-225.69 345.9375,-226.1491 1.3643,-1.2147 5.2196,-2.93 -133.0481,59.1954 -70.0826,31.4891 -127.5734,57.1026 -127.7571,56.9187 -0.1838,-0.1837 74.6643,-285.6681 166.3292,-634.4098 l 166.6635,-634.0756 0.236,252.4587 0.2362,252.4588 -32.3765,319.8047 c -17.8071,175.8925 -32.257,320.3448 -32.1111,321.005 0.1578,0.7139 13.0589,-7.1553 31.8299,-19.415 17.3605,-11.3384 31.8165,-20.6153 32.1244,-20.6153 0.308,0 0.4477,11.3432 0.3105,25.2071 l -0.2494,25.2071 -253.125,228.7901 -253.125,228.7902 -135.9292,0.066 -135.9292,0.066 7.4917,-4.9936 z m 525.0002,4.0422 c 0.9683,-1.5666 242.3983,-300.2993 244.3161,-302.3038 1.7341,-1.8124 1.7691,1.1674 1.7691,150.7031 l 0,152.5521 -123.3366,0 c -83.1843,0 -123.1452,-0.3097 -122.7486,-0.9514 z m -600.159,-251.0017 c 77.541,-120.9803 621.202,-969.6795 624.7171,-975.2344 6.2242,-9.8362 13.2134,-17.4579 -69.5456,75.8382 l -69.3518,78.182 -49.9313,-300.3695 c -27.462,-165.2032 -64.9004,-389.8069 -83.1962,-499.1194 l -33.2652,-198.75005 0.5355,93.23825 0.5356,93.2382 -4.0801,-3.3117 C 2467.9297,1109.937 2284.2656,964.24191 2062.0313,787.99162 1839.7969,611.74134 1657.125,466.71034 1656.0938,465.70051 c -1.8656,-1.82679 -1.8608,-1.82863 0.9375,-0.36656 1.5468,0.80822 185.6953,104.98929 409.2187,231.51349 223.5234,126.52421 406.5243,229.75649 406.6686,229.40509 0.1442,-0.35141 -6.9333,-43.79709 -15.7279,-96.54596 -8.7946,-52.74888 -15.8523,-96.045 -15.6836,-96.2136 0.1685,-0.16861 77.4546,231.30159 171.7468,514.37823 94.292,283.0766 171.7562,514.3557 172.1424,513.9536 0.3863,-0.4021 28.3866,-43.9555 62.2229,-96.7853 33.8364,-52.8299 61.7405,-96.2742 62.0092,-96.5428 0.2686,-0.2687 0.084,0.5573 -0.4101,1.8355 -1.4863,3.8446 -505.5625,1151.5039 -506.908,1154.1066 l -1.2446,2.4076 -124.986,13.7952 c -68.7422,7.5873 -125.2995,13.7813 -125.6829,13.7642 -0.3833,-0.017 1.1282,-2.8785 3.359,-6.3589 z M 1163.054,2590.6743 C 870.74141,2530.6551 631.38704,2481.738 631.15533,2481.9697 c -0.23171,0.2317 22.56376,44.8482 50.65658,99.1476 59.06231,114.1592 54.76536,105.7246 52.92234,103.8827 -0.77389,-0.7734 -166.40569,-226.1853 -368.07066,-500.9152 L 0,1684.5759 0,1661.681 0,1638.7859 44.078301,1538.2522 c 24.243064,-55.2936 44.387596,-100.8226 44.765625,-101.1757 0.378028,-0.353 121.765444,233.4037 269.749824,519.4592 147.98437,286.0555 269.15973,520.0222 269.27857,519.926 0.11882,-0.096 -14.92877,-45.6052 -33.43913,-101.1309 -18.51035,-55.5257 -33.58414,-100.9547 -33.49731,-100.9533 0.0868,0 213.18942,79.7159 473.56132,177.1435 260.3719,97.4274 473.4789,177.0552 473.5711,176.9506 0.092,-0.1048 -36.314,-20.8183 -80.9028,-46.0303 l -81.0704,-45.84 4.2127,-1.5038 c 8.4856,-3.0291 802.9021,-317.4493 802.6883,-317.6942 -0.1214,-0.139 -34.3013,7.3618 -75.9554,16.6687 -41.654,9.3068 -75.8595,16.7968 -76.0119,16.6443 -0.1525,-0.1525 71.0282,-144.3408 158.1791,-320.4186 148.8444,-300.7219 172.5276,-348.7352 172.0181,-348.7352 -0.1133,0 -17.4863,24.454 -38.6067,54.3423 -21.1203,29.8882 -38.6274,54.357 -38.9047,54.375 -0.2773,0.018 -39.928,-139.6245 -88.1128,-310.3166 -48.1846,-170.6922 -87.7246,-310.0008 -87.8667,-309.5748 -0.142,0.426 2.8939,26.8973 6.7464,58.8251 3.8525,31.9278 6.9163,58.0992 6.8084,58.1588 -0.1079,0.059 -102.9227,-64.5634 -228.4774,-143.6066 -264.7542,-166.67636 -242.5973,-152.79695 -241.1618,-151.06723 0.6219,0.74938 17.8002,15.88238 38.1738,33.62889 20.3738,17.74648 36.7284,32.36267 36.3437,32.48023 -0.3847,0.11766 -104.6916,18.57272 -231.7932,41.01132 -127.1016,22.43849 -232.3594,41.18639 -233.9062,41.66189 -1.9111,0.5874 1.2436,0.7427 9.8437,0.4846 6.9609,-0.2088 26.2964,-0.6113 42.9678,-0.8943 29.3184,-0.4977 30.2705,-0.458 29.0625,1.2118 -3.2507,4.4928 -300.2938,385.2381 -301.5071,386.4671 -0.7636,0.7734 0.1154,-1.3359 1.9534,-4.6875 1.838,-3.3516 49.9867,-90.4327 106.9972,-193.5136 57.0104,-103.0808 103.5252,-187.5499 103.3661,-187.709 -0.159,-0.1591 -21.1406,3.4029 -46.6258,7.9154 l -46.3367,8.2044 -81.7485,223.5541 c -44.9616,122.9548 -81.64115,223.6615 -81.5099,223.7927 0.13125,0.1312 9.43022,-16.4216 20.66447,-36.784 11.23425,-20.3624 20.52393,-37.0225 20.64363,-37.0225 0.1197,0 34.9827,85.6228 77.4734,190.2729 42.4907,104.6502 77.348,189.9744 77.4607,189.6094 0.1128,-0.365 -3.5118,-16.5893 -8.0544,-36.0542 -4.5426,-19.4648 -8.0569,-35.3906 -7.8096,-35.3906 0.3482,0 311.5079,150.003 314.4872,151.6071 0.3867,0.2082 0.7031,0.2193 0.7031,0.025 0,-0.1946 -10.9531,-7.9186 -24.3402,-17.1647 -13.3871,-9.246 -24.3545,-17.0219 -24.3718,-17.2797 -0.018,-0.2578 65.5495,-19.6481 145.7041,-43.0893 80.1545,-23.4414 145.5822,-42.774 145.3947,-42.9614 -0.1875,-0.1875 -12.2237,1.206 -26.7472,3.0965 -14.5234,1.8907 -26.5334,3.2936 -26.6887,3.1177 -0.1554,-0.1759 27.0911,-44.8276 60.5476,-99.226 67.8001,-110.2392 75.6783,-123.1882 73.2685,-120.4259 -0.9203,1.0547 -7.5795,8.8135 -14.7982,17.2417 -7.2188,8.4282 -13.2338,14.737 -13.3668,14.0198 -0.133,-0.7174 -9.0972,-49.1872 -19.9207,-107.7106 -10.8234,-58.5235 -19.8684,-107.0391 -20.1001,-107.8125 -0.2316,-0.7735 -0.3214,6.7203 -0.1993,16.6527 0.122,9.9324 -0.083,17.9481 -0.4559,17.8125 -0.3727,-0.1356 -33.2574,-25.1371 -73.0772,-55.559 -39.8197,-30.4219 -74.1248,-56.5666 -76.2336,-58.0993 -2.37,-1.7228 0.5243,1.8567 7.5805,9.375 9.5681,10.1946 11.0846,12.1998 9.375,12.3967 -2.4811,0.2857 -158.3033,13.3107 -161.2213,13.4762 -4.0657,0.2307 6.5831,1.5595 18.5569,2.3155 6.7031,0.4233 11.2519,0.9203 10.1085,1.1046 -1.3127,0.2115 -23.3657,22.9469 -59.8287,61.68 -31.7623,33.7398 -57.9466,61.3451 -58.1872,61.3451 -0.2408,0 8.3217,-12.9727 19.0276,-28.8282 10.7058,-15.8554 29.6966,-43.9884 42.2015,-62.5177 12.5051,-18.5293 22.5495,-33.8767 22.3211,-34.1051 -0.2285,-0.2285 -6.5778,0.1019 -14.1096,0.7341 -7.5319,0.6324 -13.8384,1.0031 -14.0148,0.8239 -0.1763,-0.1792 36.8725,-9.3549 82.3305,-20.3905 45.4581,-11.0356 84.2848,-20.5308 86.2817,-21.1004 l 3.6307,-1.0357 -12.7713,-9.7086 c -7.0242,-5.3397 -12.7713,-9.8639 -12.7713,-10.0537 0,-0.1898 2.6367,1.0964 5.8594,2.8582 35.4081,19.3579 173.5991,93.2402 173.8774,92.9618 0.2019,-0.2018 -1.1563,-8.4765 -3.018,-18.3881 -1.8618,-9.9117 -3.2454,-18.1609 -3.0748,-18.3316 0.1708,-0.1707 17.9764,49.552 39.5681,110.4949 21.5916,60.943 39.5155,111.3118 39.8307,111.9306 0.4949,0.9714 25.1656,-37.7754 26.8546,-42.177 0.4199,-1.0941 -19.0671,-38.1939 -61.0425,-116.2151 -33.9126,-63.0344 -62.0367,-115.03 -62.4981,-115.5456 -0.4613,-0.5156 1.5464,5.8125 4.4617,14.0625 10.1239,28.6495 10.734,30.6076 9.439,30.2957 -3.8923,-0.9375 -248.0666,-88.4218 -247.4057,-88.6421 0.6114,-0.2038 117.1563,21.1414 225.9385,41.3806 l 6.7589,1.2575 -1.5007,-2.9271 c -0.8254,-1.6099 -5.5974,-10.5208 -10.6045,-19.8021 -11.9216,-22.0982 -11.8364,-21.928 -10.087,-20.1562 0.7637,0.7734 39.0568,50.8711 85.096,111.3281 46.0391,60.457 83.9596,109.9209 84.2678,109.9199 0.3083,0 3.5136,-12.312 7.123,-27.3575 3.6093,-15.0454 6.6806,-26.5406 6.8249,-25.5448 0.1443,0.9957 -5.6564,73.1556 -12.8907,160.3551 -7.2341,87.1995 -13.153,159.6769 -13.153,161.0609 0,2.369 1.4843,1.5109 25.3199,-14.6382 29.5882,-20.0466 30.4949,-20.6294 26.9991,-17.3565 -87.8936,82.2894 -273.573,256.9109 -273.3749,257.0943 0.151,0.14 16.6012,2.4996 36.5558,5.2436 19.9547,2.7439 36.0861,5.1841 35.8477,5.4226 -0.4805,0.4803 -388.1723,7.4823 -418.2089,7.5529 l -18.8926,0.045 -22.5672,-37.5 c -12.4119,-20.625 -22.2226,-37.5 -21.8016,-37.5 0.421,0 91.6056,12.6559 202.6325,28.1242 111.0268,15.4683 201.9842,28.0068 202.1278,27.8632 0.1435,-0.1434 -14.1655,-4.6293 -31.7978,-9.9685 -17.6322,-5.3392 -33.2487,-10.1786 -34.7032,-10.7541 -2.5562,-1.0114 2.1849,-4.3238 141.5625,-98.9024 79.3139,-53.8209 144.8276,-98.4367 145.5858,-99.1464 0.7583,-0.7097 -11.2067,4.6419 -26.5889,11.8924 -15.3821,7.2504 -28.1458,13.0044 -28.3636,12.7865 -0.2178,-0.2178 15.4463,-65.4834 34.8092,-145.0345 19.3629,-79.5512 35.0726,-144.7712 34.9104,-144.9334 -0.1621,-0.1621 -27.6734,64.9747 -61.1361,144.7484 -33.4627,79.7739 -62.6143,149.1567 -64.7815,154.184 -2.1672,5.0274 -3.7701,9.1406 -3.5621,9.1406 0.2081,0 12.6578,-3.6081 27.6661,-8.018 15.0085,-4.4099 27.4068,-7.8904 27.5519,-7.7344 0.1453,0.156 -66.1575,31.4858 -147.3392,69.6218 l -147.6033,69.3382 4.9667,2.4804 c 2.7317,1.3643 16.6694,8.1001 30.9726,14.9685 14.3033,6.8684 25.8879,12.606 25.7437,12.7503 -0.2519,0.2518 -348.9448,-105.6256 -359.909,-109.2831 l -5.3468,-1.7836 1.7336,4.3768 c 0.9535,2.4073 7.4733,18.4742 14.4884,35.7042 7.015,17.23 12.6223,31.4596 12.4607,31.6213 -0.1617,0.1617 -50.8926,-83.7086 -112.7352,-186.3785 -61.8427,-102.6698 -112.86781,-187.2612 -113.38906,-187.9807 -0.70003,-0.9663 -4.9756,9.7222 -16.35422,40.8845 -8.47341,23.206 -15.54826,42.0508 -15.72179,41.8772 -0.17353,-0.1735 21.67126,-112.8365 48.54404,-250.3621 26.87273,-137.5258 48.63853,-250.2678 48.36843,-250.5379 -0.2701,-0.27 -21.6865,10.7276 -47.59199,24.4393 -25.90547,13.7117 -47.18563,24.8301 -47.28919,24.7074 -0.10358,-0.1225 106.94908,-80.3791 237.89488,-178.34781 130.9457,-97.96875 238.4532,-178.56614 238.9055,-179.10531 0.5535,-0.65973 -19.0996,-6.02495 -60.0971,-16.40625 -33.5057,-8.48427 -59.7475,-15.52055 -58.3151,-15.6362 1.4324,-0.11564 156.7997,14.05853 345.2606,31.49814 188.4609,17.43962 342.7909,31.60278 342.9553,31.47369 0.1645,-0.12909 -17.888,-27.59231 -40.1165,-61.02939 -34.0282,-51.18665 -39.4094,-59.71905 -34.049,-53.98867 3.5015,3.74332 126.3899,137.1025 273.0852,296.35374 146.6953,159.25126 266.977,289.29006 267.2927,288.97526 0.3156,-0.3149 6.011,-37.4839 12.6562,-82.5979 l 12.0824,-82.0255 0.6642,9.3692 c 0.748,10.5512 8.5545,891.8356 8.0789,912.0335 l -0.3056,12.9768 -80.154,47.2647 c -44.0846,25.9955 -80.2717,46.911 -80.4158,46.4787 -0.1441,-0.4324 28.2446,-192.8598 63.0862,-427.6166 34.8414,-234.7569 63.223,-427.2058 63.0702,-427.6643 -0.2107,-0.6319 -32.1564,100.2812 -45.0429,142.2857 l -1.7685,5.7643 -207.2319,-310.9205 C 2079.5969,960.69553 1985.9338,820.35937 1985.4343,819.84375 c -0.4996,-0.51563 -0.012,0.96094 1.0837,3.28125 14.9155,31.58992 54.9326,119.59341 54.4676,119.78241 -0.3398,0.13818 -140.3902,-35.21514 -311.2231,-78.56289 -170.833,-43.34775 -310.7502,-78.66926 -310.9273,-78.49225 -0.177,0.17702 23.2861,10.41045 52.1403,22.74096 28.8541,12.33053 52.4538,22.64838 52.4437,22.92857 -0.01,0.2802 -109.6521,58.51726 -243.6491,129.4157 -133.997,70.8984 -243.549,128.9983 -243.4491,129.1107 0.1,0.1125 131.1522,-44.5005 291.2272,-99.13995 160.0751,-54.6394 291.3922,-99.46027 291.816,-99.60188 0.4236,-0.14161 -19.2939,-12.87354 -43.8169,-28.29316 -24.523,-15.41964 -44.4669,-28.15607 -44.3198,-28.30318 0.1471,-0.14713 123.0131,52.18183 273.0356,116.2866 150.0225,64.10467 272.8393,116.50667 272.9262,116.44877 0.087,-0.058 -7.1801,-26.0497 -16.1489,-57.7597 -8.9688,-31.70998 -16.2046,-57.99223 -16.0796,-58.40511 0.1249,-0.41278 64.0973,137.96221 142.161,307.50001 78.0636,169.5379 143.0433,310.4886 144.3993,313.2238 l 2.4653,4.9732 32.705,-66.1344 c 17.9878,-36.3739 32.8226,-66.0168 32.9662,-65.8731 0.1437,0.1437 -53.9461,173.3742 -120.1994,384.9569 -66.2533,211.5826 -120.3405,384.8029 -120.1938,384.9341 0.2009,0.1796 88.4501,-34.5675 154.4856,-60.827 2.3203,-0.9227 3.7969,-1.289 3.2813,-0.814 -0.5157,0.4749 -182.2591,107.7405 -403.8745,238.3679 -253.581,149.4691 -402.4821,237.7589 -401.7099,238.191 0.6748,0.3777 42.5582,16.1475 93.074,35.0441 50.516,18.8967 92.0316,34.5418 92.2569,34.7672 0.2254,0.2253 -0.188,0.3648 -0.9184,0.3098 -0.7305,-0.055 -240.4929,-49.2065 -532.8054,-109.2258 z m -226.4915,-285.7889 -408.28125,-231.0326 -0.5768,-8.2545 c -0.31724,-4.54 -0.87776,-46.9895 -1.24561,-94.3323 l -0.66881,-86.0778 13.43311,10.6692 c 149.01305,118.3539 667.25316,529.2955 668.27686,529.9144 0.7734,0.4675 -2.6016,-3.4995 -7.5,-8.8156 -4.8984,-5.3161 -29.1971,-31.6614 -53.997,-58.5453 -42.6026,-46.1825 -44.9564,-48.9155 -42.6562,-49.5295 1.3389,-0.3574 166.9657,-11.0318 368.0595,-23.7206 355.4947,-22.4317 379.8904,-24.0272 375.9375,-24.5869 -3.907,-0.5532 -825.8519,-76.1989 -827.9558,-76.1989 -1.9256,0 2.9524,7.7569 38.1741,60.7031 27.2474,40.9591 38.9006,59.1785 35.8277,56.0157 -2.5048,-2.5782 -125.35346,-135.8161 -272.997,-296.0844 -147.64359,-160.2682 -268.74953,-291.0495 -269.12432,-290.625 -0.3748,0.4245 -6.11354,37.5539 -12.75278,82.5097 -6.63922,44.9558 -12.24262,81.5665 -12.45198,81.3571 -0.39817,-0.3981 -8.47004,-857.8755 -8.52955,-906.09567 L 517.5,944.46722 597.89062,897.04941 c 44.2201,-26.08292 80.51173,-46.92223 80.65978,-46.31628 0.14803,0.60587 -28.24042,193.18747 -63.08544,427.95917 -34.84502,234.7717 -63.23176,427.1879 -63.08164,427.5915 0.15011,0.4037 10.56434,-32.2395 23.14273,-72.5405 12.57839,-40.301 23.15062,-73.8173 23.49386,-74.4805 0.37738,-0.7293 82.65325,121.839 208.14485,310.0781 114.13643,171.2062 207.65644,311.2841 207.82204,311.2841 0.1658,0 -0.5519,-1.793 -1.5948,-3.9844 -7.1035,-14.927 -54.97544,-119.3468 -54.80903,-119.5513 0.1139,-0.1399 140.63573,35.3795 312.27063,78.9321 171.6351,43.5525 312.164,79.086 312.2866,78.9634 0.1225,-0.1226 -23.8697,-10.5004 -53.3162,-23.0618 -44.0537,-18.7927 -53.2732,-23.0333 -52.0385,-23.9362 0.8253,-0.6034 110.1624,-58.607 242.9714,-128.8968 132.8089,-70.2898 241.3267,-127.9439 241.1505,-128.1201 -0.1762,-0.1762 -20.7058,6.6458 -45.6213,15.1599 -24.9156,8.5141 -45.4959,15.2855 -45.7339,15.0474 -0.2381,-0.2381 36.1676,-100.5496 80.9015,-222.9145 44.7339,-122.3648 81.5221,-223.1143 81.7515,-223.8877 0.2294,-0.7734 -8.7291,15.0469 -19.9077,35.1563 -11.1787,20.1093 -20.6374,36.8882 -21.0195,37.2865 -0.3822,0.3981 -35.4647,-84.8951 -77.9613,-189.5408 -42.4966,-104.6456 -77.3774,-190.1537 -77.513,-190.0182 -0.1355,0.1356 3.5217,16.447 8.1272,36.2478 4.6056,19.8007 8.2981,36.0422 8.2058,36.0921 -0.093,0.05 -63.2383,-30.3965 -140.3242,-67.6589 -168.7497,-81.5714 -175.3125,-84.7275 -175.3125,-84.3124 0,0.1799 11.1548,8.0597 24.7886,17.5108 l 24.7886,17.1837 -11.8229,3.4731 c -6.5025,1.9102 -72.1341,21.1104 -145.8479,42.6672 -73.7138,21.5567 -133.3929,39.3198 -132.6202,39.4734 0.7727,0.1537 12.7149,-1.2128 26.5383,-3.0366 13.8233,-1.8239 25.2538,-3.1958 25.401,-3.0486 0.1934,0.1935 -97.5849,159.7943 -132.6428,216.509 -1.1952,1.9336 -2.0039,3.5156 -1.797,3.5156 0.2069,0 6.6749,-7.388 14.3734,-16.4177 9.8465,-11.5492 14.1012,-15.9278 14.3482,-14.7656 0.1931,0.9086 9.3435,49.9567 20.3343,108.9958 l 19.9832,107.3438 -0.178,-18.048 c -0.098,-9.9263 -0.067,-18.0474 0.066,-18.0468 0.1346,5e-4 34.0955,25.8592 75.4688,57.4638 41.3733,31.6046 75.857,57.8449 76.6304,58.3119 0.7734,0.467 -3.5393,-4.3934 -9.5838,-10.8009 -6.0446,-6.4074 -10.6852,-11.9066 -10.3125,-12.2204 0.3727,-0.3136 35.2713,-3.4197 77.5525,-6.9022 76.6759,-6.3154 86.0564,-7.1499 85.5699,-7.6124 -0.1416,-0.1346 -41.5407,-3.334 -91.9982,-7.1099 l -91.7409,-6.8651 -6.9369,-13.8507 c -3.8152,-7.6178 -6.725,-13.8506 -6.4662,-13.8506 0.2588,0 31.343,7.1685 69.0759,15.9299 37.7329,8.7615 68.7192,15.8161 68.8583,15.677 0.1392,-0.1391 -4.8029,-2.3028 -10.9824,-4.8081 l -11.2354,-4.555 2.6155,-1.5699 c 1.4385,-0.8633 25.2989,-13.9464 53.0231,-29.0735 27.7243,-15.1271 50.2734,-27.6381 50.1093,-27.8021 -0.1641,-0.1642 -4.0741,1.1066 -8.6889,2.8239 -4.6148,1.7173 -8.4969,2.8609 -8.6268,2.5412 -0.13,-0.3196 7.3566,-22.4826 16.6368,-49.2511 9.2802,-26.7685 16.6905,-48.8525 16.4674,-49.0756 -0.2232,-0.2231 -2.1465,3.0566 -4.2742,7.2883 -2.1277,4.2317 -4.0306,7.532 -4.2287,7.3339 -0.1981,-0.1982 -9.4171,-21.8063 -20.4867,-48.018 -11.0695,-26.2118 -19.7759,-47.2926 -19.3474,-46.8462 1.6862,1.7564 48.1002,75.9217 48.5545,77.5855 0.3246,1.1894 1.5181,-0.9727 3.6225,-6.5625 1.726,-4.585 2.9373,-7.0708 2.6919,-5.5239 -0.2455,1.5468 -4.5091,25.7252 -9.4747,53.7297 -4.9655,28.0044 -8.8114,51.134 -8.5463,51.3991 0.265,0.2651 3.7898,-1.3017 7.8328,-3.4815 4.043,-2.18 6.718,-3.3256 5.9446,-2.5461 -0.7734,0.7796 -22.7109,17.9748 -48.75,38.2115 -26.0391,20.2368 -47.906,37.3262 -48.5932,37.9766 -1.0154,0.9611 1.1327,1.7452 11.4687,4.1858 6.9949,1.6517 13.4961,2.8674 14.4472,2.7015 0.951,-0.1659 26.1111,-26.247 55.9112,-57.9579 29.8001,-31.7109 56.0881,-59.5547 58.4176,-61.875 3.3231,-3.3099 1.5139,-0.1796 -8.3985,14.5313 -6.9487,10.3125 -26.203,38.8654 -42.7873,63.4511 -16.5843,24.5856 -30.1532,44.8522 -30.1532,45.037 0,0.1848 6.4315,-0.2088 14.2922,-0.8746 7.8607,-0.6657 14.5973,-1.1043 14.9703,-0.9745 0.3728,0.1298 -36.5391,9.2775 -82.0267,20.3283 -45.4875,11.0507 -84.5618,20.56 -86.8318,21.1316 l -4.1272,1.0394 11.5863,8.8684 c 6.3726,4.8775 12.2377,9.4266 13.0336,10.1091 1.9356,1.6598 -3.5054,-1.2301 -97.4659,-51.7665 -44.5709,-23.9723 -81.156,-43.4679 -81.3002,-43.3236 -0.1444,0.1443 1.2447,8.388 3.0868,18.3194 1.8421,9.9313 3.2091,18.197 3.0379,18.3683 -0.1712,0.1712 -17.9755,-49.5458 -39.565,-110.4823 -21.5896,-60.9366 -39.5675,-111.1428 -39.951,-111.5695 -0.3834,-0.4267 -6.5281,8.7355 -13.6547,20.3605 -7.1266,11.625 -13.0761,21.0175 -13.2213,20.8723 -0.5307,-0.5306 108.6896,-259.8532 109.7248,-260.5207 2.1006,-1.3545 -0.707,-0.613 -27.639,7.3006 -15.0085,4.4099 -27.4278,7.8782 -27.5987,7.7072 -0.171,-0.1709 65.5842,-31.2565 146.1225,-69.079 80.5384,-37.8226 146.7151,-69.0291 147.0593,-69.3479 0.3443,-0.3188 -12.8414,-7.0814 -29.3015,-15.028 -16.4602,-7.9466 -29.771,-14.6051 -29.5796,-14.7965 0.2673,-0.2673 349.4022,105.5639 360.7777,109.3604 2.1528,0.7185 2.4366,0.6115 1.9363,-0.7306 -0.3224,-0.8648 -6.8335,-16.9387 -14.4691,-35.7197 -7.6356,-18.781 -13.7585,-34.2716 -13.6064,-34.4236 0.152,-0.1519 50.8794,83.724 112.7277,186.3911 61.8483,102.667 112.9042,187.2896 113.4575,188.0501 0.7807,1.0731 2.7622,-3.4198 8.8454,-20.0562 18.2521,-49.9166 23.3604,-63.5638 23.3942,-62.4976 0.02,0.6209 -21.9101,113.4481 -48.7324,250.727 -26.8224,137.279 -48.6545,249.8981 -48.5156,250.2646 0.1387,0.3666 16.7055,-8.0558 36.8149,-18.7164 49.4037,-26.1905 59.319,-31.342 57.5955,-29.9238 -0.8068,0.6639 -108.5019,81.3166 -239.3225,179.2283 -130.8206,97.9116 -237.7259,178.1508 -237.5674,178.3094 0.8001,0.8001 123.0159,31.3883 124.433,31.1432 1.4284,-0.2472 449.8538,-460.1301 448.6664,-460.1301 -0.2422,0 -21.0255,15.3867 -46.1852,34.1928 l -45.7448,34.1928 -0.2676,-3.9584 c -0.1472,-2.1772 4.1841,-125.8592 9.6249,-274.8492 5.441,-148.9898 9.7711,-271.255 9.6227,-271.7003 -0.1484,-0.4453 -4.431,20.6273 -9.5168,46.8282 -5.0859,26.2008 -9.3579,47.7704 -9.4934,47.9323 -0.1355,0.162 -68.2605,-80.838 -151.389,-180 -83.1284,-99.1619 -152.2209,-181.3491 -153.5387,-182.6382 l -2.3961,-2.3437 1.4187,2.3437 c 34.2446,56.5757 42.7684,71.25 41.3869,71.25 -1.8424,0 -397.9279,-55.0772 -402.0141,-55.9016 -7.3708,-1.4871 0.8059,1.2634 30.9496,10.4108 18.0403,5.4745 33.5857,10.1881 34.5455,10.4748 1.4602,0.4361 1.5367,0.716 0.4688,1.7137 -0.702,0.6558 -65.8233,44.9691 -144.7139,98.4739 -78.8907,53.5048 -143.8594,97.6662 -144.375,98.1363 -1.2447,1.1349 4.8984,-1.6403 32.3437,-14.6116 12.6328,-5.9706 23.0838,-10.517 23.2243,-10.1031 0.1405,0.4139 -15.5939,65.8488 -34.9654,145.4112 -19.3714,79.5623 -35.0957,144.7825 -34.9429,144.9337 0.1528,0.1513 4.6581,-10.2178 10.0119,-23.0424 l 9.7341,-23.3175 62.3576,115.7598 c 34.2967,63.6678 62.4763,115.6412 62.6212,115.4961 0.145,-0.1449 -3.2503,-10.1724 -7.5451,-22.2832 -4.2948,-12.1108 -7.7164,-22.1189 -7.6035,-22.2402 0.1128,-0.1214 56.9185,20.0379 126.2346,44.7983 69.3162,24.7604 124.7638,44.7957 123.217,44.5228 -17.1694,-3.0287 -231.8682,-42.8361 -232.7455,-43.1535 -1.391,-0.5032 -1.4564,-0.6366 11.0202,22.4904 11.6648,21.6222 11.3909,21.0938 10.9318,21.0938 -0.2148,0 -38.4853,-50.0006 -85.0456,-111.1124 -46.5601,-61.1119 -84.9443,-110.7877 -85.298,-110.3906 -0.3537,0.3969 -3.5473,12.8707 -7.0968,27.7194 -3.5496,14.8488 -6.5502,25.8175 -6.6681,24.375 -0.118,-1.4424 5.8161,-74.7633 13.1869,-162.9352 7.3707,-88.1718 13.331,-160.4253 13.2448,-160.5633 -0.086,-0.138 -12.3483,8.0079 -27.2494,18.1022 -23.9901,16.2511 -26.4487,17.7146 -21.4678,12.7786 3.0937,-3.066 64.8064,-61.0844 137.1393,-128.9296 72.3329,-67.8453 131.5168,-123.6859 131.5198,-124.0903 0,-0.4042 -16.7801,-3.095 -37.2956,-5.9794 l -37.301,-5.2444 24.8437,-0.6532 c 43.8538,-1.1529 403.3661,-7.2579 409.7989,-6.9589 l 6.2051,0.2883 -9.5303,-11.25 c -11.6056,-13.6999 -47.3474,-56.48517 -49.2908,-59.00433 -1.4277,-1.85071 22.1067,18.60722 253.5242,220.38193 131.0278,114.2442 131.3255,114.4959 131.9123,111.5625 0.3235,-1.6171 1.3512,-25.8328 2.2836,-53.8127 0.9325,-27.9799 1.964,-50.5502 2.2922,-50.1563 0.3281,0.394 16.5861,133.7334 36.1286,296.3096 l 35.5319,295.5932 15.5396,-15.7494 c 8.5467,-8.6622 28.7241,-29.2495 44.8388,-45.7495 l 29.2994,-30 -6.9042,9.8438 c -3.7974,5.4141 -94.3453,133.3837 -201.2179,284.377 -106.8725,150.9933 -194.1672,274.6797 -193.9881,274.8587 0.1789,0.179 32.575,-1.7375 71.9912,-4.2587 39.4162,-2.5213 71.7697,-4.4803 71.8966,-4.3533 0.1911,0.191 -317.5943,71.2811 -702.451,157.1416 l -82.6088,18.4298 67.8432,53.8011 c 60.7833,48.2026 68.4975,54.4061 67.6086,54.369 -0.1289,-0.01 -183.9609,-103.9744 -408.5156,-231.0423 z M 386.83875,1752.2659 C 292.57413,1469.1446 215.37125,1237.5 215.27679,1237.5 c -0.0944,0 -27.58208,42.785 -61.08363,95.0778 -33.50155,52.2928 -61.023411,94.9665 -61.15969,94.8304 -0.248884,-0.2486 504.96481,-1152.87595 505.61741,-1153.54846 0.43008,-0.4432 249.98993,-28.2642 250.93659,-27.97447 0.46697,0.14291 -605.76141,947.57203 -630.82594,985.87073 -0.80081,1.2237 -1.07158,1.9873 -0.60171,1.6969 0.46987,-0.2904 32.6816,-36.4102 71.58161,-80.2661 38.90003,-43.8559 70.83497,-79.2132 70.96655,-78.5718 1.5422,7.5182 197.98711,1191.0185 197.79066,1191.6078 -0.14831,0.445 -77.39527,-230.8357 -171.65989,-513.9569 z m 874.56755,325.1196 c -114.4688,-48.9494 -237.497,-101.5551 -273.39605,-116.9014 l -65.27106,-27.9026 2.21186,8.0061 c 1.21652,4.4034 8.71733,30.9983 16.66851,59.0999 7.95113,28.1016 14.35716,51.1972 14.23557,51.3236 -0.1216,0.1264 -64.27526,-138.8814 -142.56374,-308.9062 C 735.00291,1572.08 669.85633,1430.7774 668.52122,1428.0993 l -2.42747,-4.8696 -32.8125,66.4284 c -18.04688,36.5356 -32.91767,66.3248 -33.04622,66.1982 -0.12854,-0.1264 53.9735,-173.343 120.22676,-384.9257 66.25327,-211.58273 120.2668,-384.88951 120.03008,-385.12624 -0.23673,-0.23672 -35.74773,13.54135 -78.91334,30.61792 -43.16562,17.07657 -78.57462,30.94946 -78.68667,30.82864 -0.11205,-0.12082 181.20003,-107.16498 402.91574,-237.87592 221.7158,-130.71094 403.2766,-237.90977 403.4686,-238.21962 0.1921,-0.30986 -41.8013,-16.3289 -93.3187,-35.59787 -51.5174,-19.26896 -93.5666,-35.13594 -93.4425,-35.25995 0.1239,-0.124 239.9677,48.94627 532.9862,109.04505 293.0184,60.09878 532.9843,109.04687 533.2576,108.77354 0.2734,-0.27333 -22.4875,-44.92612 -50.5797,-99.22843 -56.0114,-108.27054 -55.657,-107.57775 -54.351,-106.23147 0.5003,0.51562 166.3436,226.08307 368.5407,501.261 L 3000,1314.2408 l 0,24.7906 0,24.7906 -43.7393,99.7296 c -24.0567,54.8513 -44.0333,100.068 -44.3925,100.4815 -0.3592,0.4136 -121.65,-233.0943 -269.5351,-518.9062 -147.8852,-285.812 -269.2273,-520.04948 -269.6491,-520.52777 -0.4218,-0.4783 14.3832,44.57643 32.9,100.12162 28.7463,86.23052 33.3883,100.90276 31.7596,100.38587 -1.049,-0.33296 -213.7288,-79.86366 -472.6216,-176.73489 -258.8928,-96.87123 -470.8354,-176.00825 -470.9837,-175.86004 -0.1482,0.1482 35.7961,20.6795 79.8764,45.62512 l 80.1457,45.35566 -32.1146,12.71815 c -17.663,6.99497 -199.0431,78.73651 -403.0669,159.42564 -204.0238,80.68911 -370.66442,146.80273 -370.3125,146.91913 0.35192,0.1164 34.38985,-7.33464 75.63985,-16.55788 41.25,-9.22323 75.11081,-16.66082 75.24619,-16.52798 0.17868,0.17536 -310.56487,628.85227 -329.26857,666.15547 -1.42192,2.8359 -2.18425,4.7344 -1.69405,4.2188 0.49019,-0.5157 17.6191,-24.6183 38.06425,-53.5616 20.44514,-28.9432 37.92934,-53.5581 38.85378,-54.6998 1.64742,-2.0345 3.42229,4.0944 89.30211,308.3708 48.19171,170.7456 87.73204,309.8995 87.86739,309.231 0.19779,-0.9768 -84.49651,-706.91 -85.32358,-711.1783 -0.12926,-0.6671 -12.23284,11.1454 -26.89683,26.25 -36.58364,37.6828 -63.09849,64.6856 -62.38828,63.5365 0.32595,-0.5274 90.67852,-128.2308 200.7835,-283.7854 110.10494,-155.55469 200.38194,-283.32463 200.61554,-283.93328 0.2991,-0.7795 -0.7705,-0.99168 -3.6184,-0.71776 -8.4741,0.81505 -138.8212,8.83464 -139.0979,8.55798 -0.2327,-0.23271 772.8144,-173.13067 781.5483,-174.7993 2.2024,-0.42078 7.5761,5.11767 57.1616,58.91358 l 54.7308,59.37803 -3.7241,0.27536 c -4.2814,0.31657 -739.7484,47.01155 -743.085,47.17866 -5.1131,0.25607 9.8022,1.81295 71.6456,7.47844 35.9754,3.29572 64.9772,6.13643 64.4484,6.31269 -0.8035,0.26786 -417.30567,427.8591 -441.59375,453.3509 l -7.952,8.3461 11.25,-8.2888 c 6.1875,-4.5589 27.17578,-20.2369 46.64062,-34.84 l 35.39063,-26.5511 0,6.4516 c 0,3.5483 -4.42388,127.6599 -9.83085,275.8036 -5.40697,148.1436 -9.71685,269.4661 -9.57751,269.6055 0.13934,0.1393 4.43507,-21.2415 9.54607,-47.5129 5.11099,-26.2715 9.56468,-47.7663 9.89708,-47.7663 0.54743,0 362.32371,430.8831 365.55871,435.3881 1.6447,2.2902 17.7214,16.2446 -204.3435,-177.3671 l -180.46875,-157.3452 -0.58763,5.2089 c -0.3232,2.865 -1.35169,27.685 -2.28554,55.1557 -1.47626,43.4259 -1.52193,50.1085 -0.34987,51.1871 0.74142,0.6823 105.55119,66.7601 232.91059,146.8397 127.3593,80.0795 232.5117,146.2148 233.6718,146.9675 1.1602,0.7527 2.1094,1.1509 2.1094,0.885 0,-0.2658 -16.875,-15.1798 -37.5,-33.1421 -20.625,-17.9623 -37.5,-32.888 -37.5,-33.1684 0,-0.2804 103.4648,-18.7904 229.9219,-41.1332 126.457,-22.3428 231.3984,-40.988 233.2031,-41.4336 1.8985,-0.4687 -14.4423,-0.588 -38.7764,-0.2828 l -42.0577,0.5274 5.097,-6.4091 c 2.8034,-3.525 56.0851,-71.7998 118.4038,-151.7217 62.3186,-79.9218 117.0316,-150.0585 121.5843,-155.8593 4.5528,-5.8008 8.0661,-10.5469 7.8073,-10.5469 -0.2588,0 -12.3895,11.1797 -26.9571,24.8437 -14.5676,13.6641 -26.706,24.8438 -26.9742,24.8438 -0.4135,0 -26.4225,-344.8665 -26.2962,-348.6719 0.024,-0.7304 -0.1345,-1.1494 -0.3529,-0.9309 -0.2186,0.2184 -1.5285,13.8942 -2.9112,30.3906 -1.3827,16.4964 -2.6524,30.1411 -2.8216,30.3216 -0.1692,0.1804 -46.2147,-43.4652 -102.3232,-96.9904 -56.1086,-53.5252 -105.1455,-100.29 -108.9709,-103.9219 -6.8347,-6.4891 -6.685,-6.2464 8.6492,14.0216 l 15.6043,20.625 -6.9322,0.2725 c -5.4088,0.2125 -279.2848,-7.4916 -301.4598,-8.4801 -2.9677,-0.1323 49.558,-7.3466 123.75,-16.9969 70.8984,-9.2219 133.6176,-17.3964 139.376,-18.1655 l 10.4696,-1.3984 -11.4071,-10.8742 c -22.5404,-21.4872 -31.3812,-30.5384 -26.876,-27.5159 2.3203,1.5568 62.8594,43.5734 134.5312,93.3703 71.6719,49.7969 130.4437,90.153 130.604,89.6802 0.1603,-0.4728 -0.8212,-15.6915 -2.1813,-33.8195 -1.3601,-18.1279 -2.335,-33.095 -2.1665,-33.2604 0.1685,-0.1654 19.7399,83.4228 43.492,185.7514 l 43.1857,186.0521 24.1642,-30.9796 c 13.2903,-17.0389 24.3714,-30.9797 24.6246,-30.9797 0.5881,0 8.5308,-14.4277 -110.1895,200.1562 -56.1989,101.5782 -101.8636,184.803 -101.477,184.9442 0.3864,0.1412 21.0757,-3.3618 45.9762,-7.7845 24.9006,-4.4227 45.4323,-7.8826 45.6262,-7.6887 0.1938,0.1939 -102.686,35.5114 -228.6218,78.4833 -125.9359,42.9719 -236.041,80.5566 -244.6782,83.5217 l -15.704,5.3909 45.0009,28.2888 c 37.4015,23.5118 47.3663,29.9613 44.7664,28.9741 -0.1289,-0.049 -93.8906,-40.1386 -208.3593,-89.088 z m 15.4687,-313.9489 c -73.9922,-51.4673 -134.6652,-93.4465 -134.8289,-93.2872 -0.1637,0.1593 0.8152,14.9029 2.1751,32.7636 1.36,17.8606 2.3263,32.9133 2.1472,33.4505 -0.2796,0.8388 -84.7726,-361.0974 -85.8284,-367.6565 -0.3362,-2.0892 2.9712,-5.5379 26.5225,-27.6563 14.7986,-13.8982 27.2792,-25.4101 27.7345,-25.5819 0.4554,-0.172 0.8075,0.2499 0.7823,0.9375 -0.089,2.4396 25.7963,348.4681 26.0489,348.2154 0.1414,-0.1414 1.3098,-12.8758 2.5965,-28.2987 1.2866,-15.423 2.4444,-29.0821 2.5729,-30.3535 0.2001,-1.98 15.2377,11.9988 104.7649,97.3878 57.4922,54.8348 106.5981,101.6485 109.1241,104.0305 3.5138,3.3135 1.7599,0.5867 -7.4653,-11.6065 -6.6318,-8.7657 -13.6699,-17.9974 -15.6402,-20.5151 -1.9702,-2.5176 -3.3839,-4.776 -3.1414,-5.0184 0.6002,-0.6002 308.0607,8.4867 308.0589,9.1046 -8e-4,0.2703 -61.2782,8.4534 -136.1719,18.1848 -74.8938,9.7313 -136.3295,17.8356 -136.5237,18.0095 -0.1943,0.1738 5.2901,5.701 12.1875,12.2826 17.9344,17.1133 30.4282,29.3456 29.8845,29.2589 -0.2578,-0.041 -61.0078,-42.1843 -135,-93.6516 z m 296.0752,9.0533 c -11.182,-2.1428 -20.56,-4.1335 -20.8399,-4.4237 -0.28,-0.29 42.3937,-37.2041 94.8305,-82.0312 114.1426,-97.5782 109.1245,-93.326 106.0828,-89.8904 -1.3449,1.5189 -36.6805,42.7343 -78.5234,91.5898 -67.5735,78.8981 -76.3655,88.8183 -78.6486,88.7399 -1.4137,-0.049 -11.7193,-1.8415 -22.9014,-3.9844 z m -84.5123,-29.7744 c -9.7106,-5.2237 -17.3044,-9.8032 -16.875,-10.1765 0.4295,-0.3734 39.9655,-16.864 87.8578,-36.6458 47.8924,-19.7818 86.7049,-36.085 86.25,-36.2294 -0.4548,-0.1444 -7.4944,1.3613 -15.6437,3.346 -12.3233,3.0013 -14.7216,3.3541 -14.2521,2.0962 1.307,-3.5012 82.5244,-173.3692 82.7727,-173.121 0.1497,0.1498 -10.5198,37.2928 -23.71,82.5401 -13.1903,45.2472 -23.7607,82.4893 -23.4898,82.7603 0.2711,0.2709 6.6857,-2.1035 14.2549,-5.2764 7.5691,-3.1731 13.8824,-5.6488 14.0295,-5.5017 0.3976,0.3975 -170.3624,104.9517 -172.0726,105.3577 -0.8062,0.1914 -9.411,-3.9258 -19.1217,-9.1495 z m -138.8288,-127.0994 -60.8597,-64.3276 4.4733,-15.5662 c 2.4603,-8.5613 4.7519,-16.0745 5.0922,-16.6959 0.3598,-0.6569 21.2853,28.7755 49.9897,70.3125 27.154,39.2933 52.3684,75.7666 56.0321,81.0517 3.6637,5.2852 6.5422,9.5967 6.3966,9.5813 -0.1455,-0.015 -27.6515,-28.9756 -61.1242,-64.3558 z m 82.9663,8.0406 c -32.7008,-13.3519 -59.6144,-24.1176 -59.8082,-23.9239 -0.1938,0.1938 0.936,4.689 2.5106,9.9894 1.5746,5.3004 2.7267,9.7732 2.5602,9.9397 -0.3705,0.3705 -64.4182,-131.9979 -64.4078,-133.1128 0.01,-0.6702 14.9675,-23.0796 16.8481,-25.2357 0.3444,-0.3949 9.6581,29.6393 20.6972,66.7424 11.039,37.1032 20.2179,67.3133 20.3976,67.1335 0.1797,-0.1796 -0.3678,-5.0461 -1.2169,-10.8143 -0.849,-5.7683 -1.4071,-10.6214 -1.2405,-10.785 0.1666,-0.1635 18.2327,10.4697 40.1468,23.6294 48.8712,29.3477 64.6875,38.7271 64.6875,38.3611 0,-0.1548 -3.4632,-3.1804 -7.696,-6.7236 l -7.6962,-6.4421 49.6493,-10.0199 c 43.5931,-8.7978 48.8207,-10.0313 42.8569,-10.1136 l -6.7924,-0.094 26.1666,-34.9219 c 14.3917,-19.207 25.9824,-35.1064 25.7571,-35.3321 -0.2253,-0.2257 -2.2843,1.4296 -4.5756,3.6784 -2.9391,2.8844 -4.2926,3.6955 -4.5956,2.754 -0.2361,-0.7341 -1.8002,-17.2582 -3.4755,-36.7202 -1.6754,-19.4621 -3.1621,-35.2697 -3.3037,-35.128 -0.4961,0.4961 -6.0981,77.63 -5.8074,79.963 0.2937,2.356 0.2956,2.3555 6.3875,-1.9554 6.913,-4.8919 8.8072,-6.813 -34.5276,35.0188 l -20.9339,20.2078 -6.7223,-1.7082 c -3.6973,-0.9395 -7.2619,-1.9971 -7.9211,-2.3501 -0.749,-0.401 10.1547,-8.6773 29.0625,-22.0594 16.6436,-11.7796 30.683,-21.8209 31.1986,-22.314 0.5157,-0.4932 -1.3192,0.2317 -4.0775,1.6109 -2.7583,1.3791 -5.2077,2.3149 -5.443,2.0795 -0.2354,-0.2353 2.3565,-13.0253 5.7597,-28.4223 7.6367,-34.5507 7.4434,-33.5297 5.5846,-29.5039 -0.8071,1.7479 -1.8057,2.8026 -2.2191,2.3437 -0.4133,-0.4589 -6.9804,-12.014 -14.5935,-25.6781 -7.6131,-13.6641 -14.6668,-26.2148 -15.6749,-27.8906 -1.0081,-1.6758 -1.641,-3.0469 -1.4064,-3.0469 0.2345,0 8.3503,10.1407 18.0349,22.5349 9.6847,12.3942 17.8998,22.7149 18.256,22.9351 0.3561,0.2201 1.2138,-2.6014 1.906,-6.27 l 1.2586,-6.6702 -6.5394,-6.1868 c -20.5386,-19.4313 -40.8291,-37.7303 -39.8893,-35.9742 0.5966,1.1148 1.5043,2.2861 2.0172,2.603 3.2128,1.9858 -1.4702,2.3333 -30.2395,2.2443 l -31.1719,-0.096 17.3438,-2.6606 c 9.5391,-1.4633 22.1195,-3.3776 27.9565,-4.2541 l 10.6129,-1.5934 -4.0504,-4.2075 c -3.0513,-3.1699 3.0018,0.5247 24.5435,14.9802 15.7266,10.5532 29.1839,19.5305 29.9052,19.9495 1.0841,0.6298 1.2004,-0.075 0.6708,-4.0672 -0.3523,-2.656 -0.4667,-4.8291 -0.2543,-4.8291 0.2126,0 4.7254,17.365 10.0287,38.5889 l 9.6422,38.5889 1.9568,-2.3086 c 1.0763,-1.2697 3.1406,-3.7637 4.5874,-5.542 2.9232,-3.5932 -1.6458,5.4096 -25.9508,51.1342 -8.4944,15.9805 -15.3315,29.1681 -15.1937,29.306 0.1379,0.1379 4.3911,-0.6012 9.4514,-1.6424 5.0604,-1.0412 9.3373,-1.7566 9.5041,-1.5897 0.1669,0.1669 -22.5751,8.6836 -50.5379,18.9259 -27.9626,10.2424 -52.0331,19.1133 -53.4899,19.7131 l -2.6486,1.0906 6.8674,4.0466 c 8.3725,4.9334 10.8506,6.5935 9.6542,6.4675 -0.5015,-0.053 -27.6669,-11.0203 -60.3676,-24.3723 z M 1687.5,1640.896 c 0,-1.677 29.163,-227.7236 29.4863,-228.5522 0.2011,-0.5157 0.399,1.7798 0.4397,5.101 0.04,3.3212 1.144,46.4584 2.4517,95.8606 1.3077,49.402 2.2569,93.8748 2.1094,98.8284 l -0.2683,9.0064 -16.6533,10.2111 c -9.1593,5.6161 -16.8585,10.2112 -17.1094,10.2112 -0.2509,0 -0.4561,-0.2999 -0.4561,-0.6665 z m -272.8125,-55.1813 c -22.9453,-19.3404 -42.5029,-35.9433 -43.4613,-36.8955 -1.6832,-1.6724 -1.6879,-2.0617 -0.1369,-11.4472 0.883,-5.3436 1.9166,-10.0496 2.2968,-10.4576 0.3802,-0.408 16.4731,17.3027 35.762,39.3571 19.2889,22.0544 37.9568,43.3764 41.4843,47.3825 3.5275,4.0059 6.2697,7.2703 6.0937,7.2542 -0.1758,-0.016 -19.0933,-15.8533 -42.0386,-35.1935 z M 0.07401316,1365.6529 0,1113.6495 32.367432,792.37161 C 50.16952,615.66878 64.618739,470.36265 64.476807,469.46908 64.277539,468.21453 57.170801,472.4573 33.28125,488.09305 16.265625,499.22981 1.8094255,508.5517 1.1563622,508.80836 c -0.94400044,0.371 -1.13616649,-4.6935 -0.93749998,-24.70761 L 0.46875,458.92649 254.4878,229.46324 508.50684,0 644.40967,0 C 719.15623,0 780.13672,0.16035368 779.92188,0.35634153 779.70703,0.55232936 621.75,103.74055 428.90625,229.66351 236.0625,355.58647 77.859375,459.02142 77.34375,459.51896 75.969963,460.84457 69.130642,463.87818 206.25,402.34206 276.11719,370.98721 333.39093,345.58729 333.52497,345.89778 333.73903,346.39362 1.500826,1614.3192 0.52807569,1616.7188 0.31904854,1617.2344 0.11472039,1504.2547 0.07401316,1365.6529 Z M 1439.1077,1597.3924 c -2.6565,-4.1842 -4.659,-7.7786 -4.45,-7.9876 0.2089,-0.209 22.784,2.4722 50.1669,5.9581 27.3829,3.4859 49.4876,6.595 49.1218,6.9091 -0.626,0.5374 -68.7984,2.7844 -83.3057,2.7458 l -6.703,-0.018 -4.83,-7.6076 z m 26.7228,-14.2828 -39.3258,-11.3908 -2.043,-8.1675 -2.043,-8.1674 2.9313,1.2649 c 1.6122,0.6957 15.3766,7.0588 30.5875,14.1403 15.2109,7.0814 29.1328,13.4603 30.9375,14.1751 3.2454,1.2856 3.2562,1.2818 0.9884,-0.3479 -6.5401,-4.6996 -7.9159,-3.7981 17.951,-11.762 13.0443,-4.0159 27.5137,-8.5429 32.1544,-10.0599 l 8.4375,-2.758 -5.5852,0.5829 -5.5852,0.5829 1.4453,-2.2418 c 0.7948,-1.2329 8.5129,-14.3706 17.1513,-29.1948 8.6383,-14.8242 15.8469,-26.9531 16.0191,-26.9531 0.1722,0 -4.8565,12.8672 -11.1748,28.5937 -6.3183,15.7266 -11.375,28.5938 -11.237,28.5938 0.1379,0 1.2273,-0.3601 2.421,-0.8003 9.771,-3.6025 3.2972,0.086 -23.8914,13.6121 l -31.6869,15.764 6.3744,2.9775 c 3.5059,1.6376 5.9525,2.9706 5.4368,2.9623 -0.5156,-0.01 -18.6341,-5.1411 -40.2632,-11.406 z m -183.3411,-3.5002 c -0.01,-4.8555 -1.0546,-47.8516 -2.3306,-95.5469 -1.276,-47.6953 -2.326,-90.7357 -2.3332,-95.6453 l -0.013,-8.9266 17.1094,-10.5256 c 9.4101,-5.7891 17.2387,-10.1381 17.3968,-9.6643 0.3635,1.0892 -28.814,228.1321 -29.3918,228.7098 -0.2348,0.2349 -0.4317,-3.5457 -0.4375,-8.4011 z m 122.6619,-36.1678 -25.0048,-39.7844 -2.6012,7.9873 c -1.4306,4.3929 -2.7285,7.8597 -2.8844,7.7039 -0.1558,-0.1558 3.9349,-23.9694 9.0904,-52.9192 5.1555,-28.9499 9.3737,-53.3128 9.3737,-54.1398 0,-1.1577 -1.8874,-0.4867 -8.2031,2.9166 -4.5117,2.4313 -7.7813,3.9925 -7.2656,3.4694 0.5156,-0.523 22.2421,-17.5109 48.2812,-37.7507 26.0391,-20.2399 48.3275,-37.6928 49.5297,-38.7841 l 2.186,-1.9843 -12.0297,-2.9413 c -6.6163,-1.6176 -10.9751,-2.9965 -9.686,-3.0641 2.7168,-0.1424 142.5032,10.0793 146.7345,10.7298 2.5941,0.3987 3.3892,1.5599 9.6052,14.0271 3.8541,7.7298 6.2734,13.5794 5.6093,13.5624 -0.6423,-0.016 -31.7537,-7.1485 -69.1365,-15.8493 -37.3828,-8.7008 -68.0789,-15.714 -68.2135,-15.5848 -0.1347,0.1291 4.8246,2.2808 11.0207,4.7817 6.196,2.5009 10.9468,4.8415 10.5572,5.2014 -0.3895,0.3599 -24.1222,13.4056 -52.7394,28.9904 -28.6172,15.5848 -52.6641,28.7401 -53.4375,29.2339 -1.7179,1.0971 -0.8727,0.8285 10.9709,-3.4868 l 8.6271,-3.1434 -0.9735,2.5215 c -2.6983,6.9883 -33.6267,97.0505 -33.4046,97.2726 0.1421,0.1421 2.1363,-3.2778 4.4315,-7.5997 2.2953,-4.3219 4.2785,-7.7528 4.4071,-7.6242 0.465,0.465 40.5604,95.6969 40.3629,95.8675 -0.1114,0.096 -11.4548,-17.7281 -25.2076,-39.6094 z m 44.3601,15.4872 -29.3949,-19.6996 0.6727,4.9948 c 0.3701,2.7471 0.4403,4.7748 0.1561,4.5059 -0.2842,-0.2688 -4.7877,-17.5567 -10.0078,-38.4174 -5.2201,-20.8607 -9.6267,-38.0642 -9.7926,-38.23 -0.1657,-0.1658 -2.3303,2.4618 -4.8102,5.8393 -2.4799,3.3774 -4.6406,6.1407 -4.8016,6.1407 -0.161,0 1.5748,-3.4805 3.8575,-7.7344 16.7151,-31.1506 40.8396,-76.9728 40.6333,-77.1793 -0.1379,-0.1378 -4.2182,0.5631 -9.0673,1.5578 -4.8493,0.9946 -8.9637,1.6613 -9.1434,1.4816 -0.1796,-0.1796 22.985,-8.8725 51.4769,-19.3176 28.4921,-10.4449 52.3629,-19.3008 53.0464,-19.6795 0.8217,-0.4553 -1.6401,-2.3526 -7.2656,-5.5992 -4.6796,-2.7008 -8.5084,-5.0815 -8.5084,-5.2905 0,-0.4828 -5.1926,-2.5573 62.209,24.8534 31.8947,12.9709 58.1869,23.3868 58.4272,23.1466 0.2402,-0.2403 -0.8586,-4.7665 -2.4417,-10.0584 -1.5832,-5.2918 -2.7466,-9.7533 -2.5855,-9.9145 0.7228,-0.7228 64.5608,132.8769 64.085,134.1167 -0.293,0.7634 -4.2142,6.7466 -8.7138,13.296 -6.5111,9.4772 -8.3094,11.5451 -8.8093,10.1302 -0.3456,-0.9777 -9.4297,-31.3974 -20.1872,-67.5994 -10.7574,-36.202 -19.6804,-65.7003 -19.8289,-65.5518 -0.1485,0.1485 0.3909,5.0232 1.1985,10.8327 0.8077,5.8095 1.3111,10.7202 1.1187,10.9127 -0.1925,0.1924 -21.8438,-12.5475 -48.1141,-28.311 -26.2703,-15.7634 -49.6626,-29.7114 -51.9829,-30.9955 l -4.2187,-2.3348 4.6592,4.0722 c 2.5627,2.2397 5.8929,5.1578 7.4006,6.4845 l 2.741,2.4123 -48.1817,9.5896 c -26.4999,5.2742 -49.2363,9.9226 -50.5254,10.3299 -1.3345,0.4214 1.0837,0.5448 5.6162,0.2864 6.7181,-0.3829 7.7964,-0.2501 6.9115,0.8517 -1.2379,1.5412 -50.7753,68.1569 -52.2113,70.2116 -0.5407,0.7734 2.7881,-2.2236 7.3972,-6.6599 62.47,-60.1296 64.3779,-61.879 66.8803,-61.3276 1.3406,0.2953 4.9644,1.288 8.0531,2.2059 l 5.6157,1.669 -30.6939,21.8223 c -16.8816,12.0024 -30.6938,22.0051 -30.6938,22.2285 0,0.2232 2.1094,-0.663 4.6875,-1.9695 2.5781,-1.3064 4.6875,-1.9719 4.6875,-1.479 0,0.4931 -2.9531,14.2966 -6.5625,30.6747 -3.6094,16.378 -6.5514,30.0091 -6.5379,30.2913 0.013,0.2821 0.7707,-1.148 1.6825,-3.1782 l 1.658,-3.6912 14.8784,26.66 c 8.183,14.6629 15.4901,27.6092 16.2378,28.7693 0.7476,1.1602 1.1289,2.1094 0.8472,2.1094 -0.2817,0 -8.4098,-10.125 -18.0624,-22.5 -9.6526,-12.375 -17.8405,-22.5 -18.1953,-22.5 -0.3548,0 -1.1863,2.8685 -1.8478,6.3742 l -1.2027,6.3744 5.9742,5.6681 c 3.2859,3.1174 14.2008,13.217 24.2555,22.4435 16.4454,15.0907 19.4504,17.488 13.7092,10.9367 l -1.8485,-2.1094 32.7415,0.097 32.7416,0.097 -28.8266,4.3222 -28.8265,4.3222 3.9436,4.0182 c 2.169,2.2099 3.7503,3.9908 3.514,3.9574 -0.2362,-0.034 -13.6572,-8.9256 -29.8244,-19.7604 z m -26.0071,-67.1536 c 1.6616,-22.031 2.9175,-40.2036 2.7908,-40.3835 -0.1268,-0.1799 -3.0013,1.6501 -6.3878,4.0666 -4.2815,3.0553 -6.1663,5.0114 -6.1869,6.4209 -0.059,4.0431 6.0854,71.9848 6.4194,70.9825 0.1889,-0.5665 1.7029,-19.0554 3.3645,-41.0865 z m 205.9633,67.633 c 0.1954,-35.309 2.3693,-126.3293 2.9639,-124.0957 0.7531,2.8288 16.631,120.8317 16.631,123.5999 0,1.8128 -4.2056,5.6109 -16.1719,14.6051 l -3.5156,2.6426 0.093,-16.7519 z m -261.8325,5.7481 c -0.3553,-2.0625 -4.3381,-31.1264 -8.8505,-64.5864 l -8.2047,-60.8363 2.7569,-2.2197 c 1.5164,-1.2208 6.0871,-4.8104 10.1573,-7.9769 l 7.4003,-5.7572 -0.7319,44.4382 c -1.3013,79.0041 -1.8686,100.7617 -2.5274,96.9383 z M 1301.5192,1507.5 c 0.2136,-0.7734 11.044,-38.0285 24.0676,-82.7889 13.0234,-44.7605 23.4883,-81.5735 23.2551,-81.8067 -0.2332,-0.2331 -5.6578,1.734 -12.0547,4.3715 -15.5797,6.4235 -16.4976,6.7634 -15.381,5.6956 1.238,-1.1839 171.0011,-105.159 171.696,-105.159 1.2999,0 35.8643,19.0843 35.5336,19.6194 -0.2028,0.3283 -40.0463,17.012 -88.5409,37.0751 -48.4947,20.063 -88.0595,36.591 -87.9217,36.7287 0.1377,0.1378 7.3261,-1.4629 15.9741,-3.5572 8.648,-2.0942 15.9155,-3.6156 16.1501,-3.3812 0.3982,0.3983 -78.508,166.5993 -81.7042,172.0944 -0.8044,1.383 -1.2877,1.8817 -1.074,1.1083 z m 129.3315,-12.1875 c 3.6907,-10.3477 21.7944,-54.0825 22.5991,-54.595 1.5744,-1.0028 0.6975,-0.8651 -4.4638,0.7006 -2.5342,0.7687 -4.7473,1.2581 -4.918,1.0875 -0.1706,-0.1708 13.6879,-7.1483 30.7967,-15.5057 l 31.1069,-15.1953 -5.5639,-2.7441 c -7.2732,-3.5868 -7.0442,-3.531 36.1548,8.8204 l 37.0313,10.5879 2.0769,7.8293 c 1.1423,4.3061 1.9496,7.9566 1.794,8.1123 -0.1556,0.1556 -12.6919,-5.4518 -27.8582,-12.4608 -44.0879,-20.3751 -42.8129,-19.8452 -34.4647,-14.3229 l 3.4231,2.2643 -30.1418,9.2662 c -34.433,10.5852 -35.8436,11.0907 -28.8879,10.3511 2.7521,-0.2927 4.823,-0.1963 4.602,0.2142 -0.2211,0.4104 -7.5005,12.9806 -16.1766,27.9338 -14.6087,25.1778 -18.4278,31.351 -17.1099,27.6562 z m 216.3107,-91.1025 c -52.6349,-76.1347 -58.4988,-84.7263 -56.5159,-82.8037 8.1418,7.8938 120.292,127.3901 120.292,128.1713 0,1.6482 -8.5717,31.1034 -9.2792,31.886 -0.3392,0.3753 -24.8629,-34.3888 -54.4969,-77.2536 z m -60.5126,24.7744 c -21.511,-24.6211 -40.2094,-46.0034 -41.5518,-47.5163 -1.3424,-1.5129 2.8327,1.6618 9.278,7.0549 51.8567,43.3905 75.9375,64.0718 75.9375,65.2173 0,3.3848 -3.179,20.0097 -3.8262,20.0097 -0.3995,0 -18.3264,-20.1445 -39.8375,-44.7656 z m -75.1057,-24.4789 c -26.3936,-3.402 -47.853,-6.3205 -47.6878,-6.4858 0.3376,-0.3377 75.1092,-2.9584 85.4695,-2.9957 l 6.6685,-0.024 4.8159,7.5662 c 2.6487,4.1614 4.8158,7.7473 4.8158,7.9688 0,0.8173 -7.1234,0.023 -54.0819,-6.0295 z m -189.6381,-87.9232 c 41.8829,-48.9093 77.1081,-89.9285 78.2782,-91.1537 l 2.1272,-2.2277 21.8917,3.9974 c 12.0404,2.1986 22.4673,4.2995 23.1709,4.6688 0.8684,0.4557 -30.8804,28.1959 -98.834,86.3553 -55.0623,47.1261 -100.7144,86.0443 -101.4491,86.4849 -0.7346,0.4406 32.9321,-39.2157 74.8151,-88.125 z M 364.6875,1069.3886 c 0,-0.3573 162.17631,-183.42393 360.39179,-406.81481 198.21548,-223.39086 360.28341,-406.27357 360.15101,-406.40601 -0.191,-0.19106 -214.57866,-10.23471 -227.36346,-10.65153 -1.83458,-0.0598 -2.70278,-0.26389 -1.92934,-0.4535 0.77344,-0.18961 283.1955,-31.58223 627.6045,-69.76139 344.4091,-38.17915 626.3275,-69.54588 626.4855,-69.70383 0.1579,-0.15795 -23.5392,-24.00033 -52.6602,-52.983079 l -52.9474,-52.69590719 16.6204,0.2751031 16.6204,0.27510309 481.112,346.40625 481.1121,346.40625 0.057,146.22653 0.057,146.2265 -6.7969,-6.63131 c -19.0526,-18.58847 -790.6569,-782.58602 -830.625,-822.43647 -25.6524,-25.57677 -46.6406,-46.25062 -46.6406,-45.94189 0,0.30874 32.6797,45.0259 72.6216,99.37148 l 72.6217,98.81016 -4.8873,0.25673 c -3.9337,0.20665 -1132.7719,-51.09857 -1157.5435,-52.60986 -4.2822,-0.26124 -6.2982,-0.11943 -5.1563,0.36272 1.0313,0.43542 47.6484,10.14116 103.5938,21.5683 55.9453,11.42715 101.8198,20.86824 101.9433,20.98022 0.1235,0.11197 -0.9312,1.27671 -2.3437,2.5883 -1.4126,1.31159 -210.5528,173.56792 -464.75589,382.79185 -254.20313,209.22394 -463.34766,381.48409 -464.76563,382.80049 -1.41797,1.3163 -2.57812,2.101 -2.57812,1.7436 z M 2595.0106,205.0683 2190.4898,0.46875 2415.4793,0.19136195 2640.4688,-0.08602612 2820.2344,57.801532 3000,115.68909 l 0,146.99921 c 0,80.84956 -0.1055,146.99477 -0.2344,146.98937 -0.1289,-0.006 -182.2686,-92.07962 -404.755,-204.60937 z M 339.375,342.90973 c 0.25781,-0.2827 172.23214,-77.55383 382.16516,-171.71361 L 1103.2366,-0.00348922 1351.9404,0.23263039 1600.6443,0.46875 971.18156,171.48909 c -346.20455,94.0612 -630.09562,171.22607 -630.86906,171.4775 -0.77344,0.25144 -1.19531,0.22584 -0.9375,-0.0569 z M 0,153.46875 0,0 123.75,0 C 191.8125,0 247.5,0.18303395 247.5,0.4067421 247.5,0.75695377 3.0622169,303.62218 0.82263088,306.04687 0.3505128,306.55802 0,241.54637 0,153.46875 Z M 2988.2715,30.812686 C 2982.0893,14.759663 2976.8906,1.2596636 2976.7188,0.8126862 2976.5468,0.36570878 2981.7148,0 2988.2032,0 L 3000,0 l 0,30 c 0,16.5 -0.1099,30 -0.2441,30 -0.1344,0 -5.3023,-13.134292 -11.4844,-29.187314 z"
     id="path4146"
     inkscape:connector-curvature="0" />
</svg>
